<?xml version="1.0" encoding="UTF-8"?> <svg xmlns="http://www.w3.org/2000/svg" id="Layer_1" data-name="Layer 1" x="0px" y="0px" width="415.4px" height="61.84px" viewBox="0 0 415.4 61.84"><defs><style>.cls-1{fill:#fff;}</style></defs><title>Artboard 1</title><path class="cls-1" d="M413.95,37a17.48,17.48,0,0,0-4-5.68,20,20,0,0,0-6.07-3.88,20.42,20.42,0,0,0-15.12,0,20,20,0,0,0-6.07,3.88,17.45,17.45,0,0,0-4,5.68,16.62,16.62,0,0,0-1.45,6.85,16.79,16.79,0,0,0,1.45,6.93,17.4,17.4,0,0,0,4,5.68,19.29,19.29,0,0,0,6.07,3.84,21,21,0,0,0,15.12,0,19.34,19.34,0,0,0,6.07-3.84,17.43,17.43,0,0,0,4-5.68,16.82,16.82,0,0,0,1.45-6.93A16.65,16.65,0,0,0,413.95,37Zm-9.32,13a20.32,20.32,0,0,1-1,5.4,8.5,8.5,0,0,1-2.54,3.8,8.59,8.59,0,0,1-9.56,0A8.51,8.51,0,0,1,389,55.4a20.13,20.13,0,0,1-1-5.4q-.2-3.06-.2-6.19t.2-6.15a20.1,20.1,0,0,1,1-5.37,8.55,8.55,0,0,1,2.55-3.8,8.6,8.6,0,0,1,9.56,0,8.54,8.54,0,0,1,2.54,3.8,20.29,20.29,0,0,1,1,5.37q.19,3,.19,6.15T404.63,50Z"></path><path class="cls-1" d="M366.85,4.76V3.67H349.35v.56h8V32.71c-1.11-2.44-2-3.91-3.51-5A9.53,9.53,0,0,0,348.07,26a16,16,0,0,0-7.79,1.74,16.92,16.92,0,0,0-5.3,4.41A18.21,18.21,0,0,0,331.92,38a19.79,19.79,0,0,0-1,5.87,18.49,18.49,0,0,0,4.73,12.41,16.9,16.9,0,0,0,5.36,4,16,16,0,0,0,7,1.49,9.29,9.29,0,0,0,5.85-1.76A9.64,9.64,0,0,0,357.37,55v5.55h15.82V60h-6.34Zm-9.48,41.81c0,.86-.17,1.75-.24,2.69A19.47,19.47,0,0,1,356,54.74a10.62,10.62,0,0,1-2.8,4.23A7.34,7.34,0,0,1,348,60.65a5,5,0,0,1-3.49-1.18,7.3,7.3,0,0,1-2-3.36,23.37,23.37,0,0,1-.86-5.29q-.2-3.09-.2-6.93a75.38,75.38,0,0,1,.35-7.95,18,18,0,0,1,1.21-5.2,5.52,5.52,0,0,1,5.56-3.68,6.4,6.4,0,0,1,4.62,1.64,10.24,10.24,0,0,1,2.59,4.15,23.49,23.49,0,0,1,1.23,5.48c.11,1.17.31,2.28.31,3.36Z"></path><path class="cls-1" d="M321,37.48c0-3.45-.85-6.16-2.75-8.14s-4.53-3-8-3a14.22,14.22,0,0,0-5.85,1.06,13.56,13.56,0,0,0-3.82,2.47,12.37,12.37,0,0,0-2.42,2.86c-.47.88-1.17,1.52-1.17,2V27.09H280.49v.56H287V60h-6.56v.56h21.61V60h-5V41.43a17.13,17.13,0,0,1,.86-4.88,14.7,14.7,0,0,1,2.15-4.46,8.76,8.76,0,0,1,3-2.7,7.74,7.74,0,0,1,3.62-.9A3.87,3.87,0,0,1,310,30c.89,1,1,2.62,1,4.82V60h-9.87v.56h26.91V60h-7Z"></path><path class="cls-1" d="M177.79,37.48c0-3.45-.85-6.16-2.75-8.14s-4.53-3-8-3a14.22,14.22,0,0,0-5.85,1.06,13.56,13.56,0,0,0-3.82,2.47A12.37,12.37,0,0,0,155,32.75c-.47.88-1.17,1.52-1.17,2V27.09H137.23v.56h6.56V60h-6.56v.56h21.61V60h-5V41.43a17.13,17.13,0,0,1,.86-4.88,14.7,14.7,0,0,1,2.15-4.46,8.76,8.76,0,0,1,3-2.7,7.74,7.74,0,0,1,3.62-.9A3.87,3.87,0,0,1,166.77,30c.89,1,1,2.62,1,4.82V60h-9.87v.56H184.8V60h-7Z"></path><path class="cls-1" d="M263.75,55.59a7.19,7.19,0,0,0,9.12,0,4.91,4.91,0,0,0,0-7.78,7.19,7.19,0,0,0-9.12,0,4.91,4.91,0,0,0,0,7.78Z"></path><path class="cls-1" d="M275.28,41a16.72,16.72,0,0,0-1.41-6.86,13.83,13.83,0,0,0-3.6-4.66,14.58,14.58,0,0,0-4.93-2.66,18.28,18.28,0,0,0-5.48-.86,17,17,0,0,0-7.16,1.52,19.77,19.77,0,0,0-5.79,4A18.39,18.39,0,0,0,243,37.17a16.21,16.21,0,0,0-1.41,6.58,18.31,18.31,0,0,0,1.49,7.55,16.19,16.19,0,0,0,4.11,5.64,18.14,18.14,0,0,0,6.14,3.52,23.18,23.18,0,0,0,7.6,1.21,15.71,15.71,0,0,0,5.87-1,14,14,0,0,0,4.07-2.43,12,12,0,0,0,2.58-3.13A13.89,13.89,0,0,0,274.81,52l-1.1-.39a8.63,8.63,0,0,1-.75,2.19,11.74,11.74,0,0,1-2,3,13,13,0,0,1-3.52,2.7,10.89,10.89,0,0,1-5.28,1.18,8.88,8.88,0,0,1-5.48-1.49,9.49,9.49,0,0,1-3-3.8,16,16,0,0,1-1-5.17c-.16-1.9,0-3.8,0-5.67V41Zm-22.82-5.38a15.92,15.92,0,0,1,.9-4.15,7.55,7.55,0,0,1,2.16-3.17,6.09,6.09,0,0,1,4.11-1.25,4.54,4.54,0,0,1,2.94.86A4.89,4.89,0,0,1,264.08,30a8.88,8.88,0,0,1,.63,2.5c.05.84.16,1.54.16,2.11v5.24H252.19C252.24,38.79,252.33,37.13,252.46,35.64Z"></path><path class="cls-1" d="M35,31.69A21.12,21.12,0,0,0,29.6,28.6q-3-1.21-6.18-2.23t-6.18-2a29.18,29.18,0,0,1-5.36-2.23,12.55,12.55,0,0,1-3.79-3.09,7,7,0,0,1-1.45-4.54A7.79,7.79,0,0,1,7.48,11,10.06,10.06,0,0,1,10,7.89a12.77,12.77,0,0,1,4-2.27,16.27,16.27,0,0,1,5.52-.86A13.66,13.66,0,0,1,25.62,6l-.27.08a4.94,4.94,0,0,0-2.68,7.36,7.23,7.23,0,0,0,8.63,3.14A4.94,4.94,0,0,0,34,9.19a6.85,6.85,0,0,0-3.75-3.11l-.09,0c-.74-.3-1.57-.61-2.52-.94s-2.14-.67-3.45-1a19.72,19.72,0,0,0-4.54-.47A20.46,20.46,0,0,0,12.06,5a19.77,19.77,0,0,0-6,3.6,16.51,16.51,0,0,0-3.91,5.13,13.64,13.64,0,0,0-1.41,6,16,16,0,0,0,1.37,7,14.27,14.27,0,0,0,3.64,4.74,19.9,19.9,0,0,0,5.17,3.13,57.64,57.64,0,0,0,5.95,2.11l6,1.76A26.2,26.2,0,0,1,28,40.69a11,11,0,0,1,3.64,3.13A7.93,7.93,0,0,1,33,48.6a12.83,12.83,0,0,1-.63,3.64,11.53,11.53,0,0,1-2.15,4A12.09,12.09,0,0,1,26,59.36a15.64,15.64,0,0,1-6.81,1.29q-1.17,0-2.54,0a12,12,0,0,1-2.9-.47,15,15,0,0,1-3.21-1.37c-.1-.06-.21-.15-.31-.21a4.77,4.77,0,0,0,2.23-2.52,5,5,0,0,0-.4-4.34,6.84,6.84,0,0,0-3.7-3.18,6.83,6.83,0,0,0-4.87-.11A4.94,4.94,0,0,0,.72,55.73a6.85,6.85,0,0,0,3.7,3.18,7.87,7.87,0,0,0,1.14.33s0,.07.09.08q1.6.47,3.68,1t4.46,1a24.87,24.87,0,0,0,4.81.47,24.24,24.24,0,0,0,8.81-1.53,21.62,21.62,0,0,0,6.81-4.11,18.21,18.21,0,0,0,4.42-6,17.4,17.4,0,0,0,1.57-7.28,13.61,13.61,0,0,0-1.45-6.58A14.82,14.82,0,0,0,35,31.69Z"></path><path class="cls-1" d="M69.53,53.3a21.07,21.07,0,0,1-.82,2.43A9,9,0,0,1,67.42,58a6.76,6.76,0,0,1-1.84,1.6,4.91,4.91,0,0,1-2.54.63,4.29,4.29,0,0,1-2.15-.47,3.14,3.14,0,0,1-1.25-1.29,5.81,5.81,0,0,1-.54-1.84A14.37,14.37,0,0,1,59,54.39V27.72h9.69v-.63H59V12H49.51V27.09h-6.9v.63h6.9V52.28a30.38,30.38,0,0,0,.07,3.05,5.88,5.88,0,0,0,1.17,3.05A7.68,7.68,0,0,0,54,60.73a16.75,16.75,0,0,0,6.29.94,18.88,18.88,0,0,0,3.13-.28,8.83,8.83,0,0,0,3.09-1.13A8.53,8.53,0,0,0,69.1,57.8a10.46,10.46,0,0,0,1.6-4.26Z"></path><path class="cls-1" d="M105.48,28.29a7.84,7.84,0,0,0-5.32-1.76,9.47,9.47,0,0,0-6.46,2.15,19.78,19.78,0,0,0-3.93,5.08V27.09H74.5v.56h5.79V60H74.5v.56H96.1V60H89.76V39.28a11.71,11.71,0,0,1,.88-4.11,14.48,14.48,0,0,1,1.84-3.41,8.22,8.22,0,0,1,2.23-2.15,4,4,0,0,1,2-.75,2,2,0,0,1,.83.16,6.92,6.92,0,0,0-1,.73,4.94,4.94,0,0,0,0,7.83,7.23,7.23,0,0,0,9.18,0,5,5,0,0,0,1.93-3.92,4.91,4.91,0,0,0-.14-1.15A5.94,5.94,0,0,0,105.48,28.29Z"></path><path class="cls-1" d="M117.51,15.76a7.19,7.19,0,0,0,9.12,0,4.91,4.91,0,0,0,0-7.78,7.19,7.19,0,0,0-9.12,0,4.91,4.91,0,0,0,0,7.78Z"></path><polygon class="cls-1" points="127.12 27.34 127.12 27.09 110.74 27.09 110.74 27.64 117.64 27.64 117.64 59.98 112.06 59.98 112.06 60.54 131.57 60.54 131.57 59.98 127.12 59.98 127.12 27.34"></polygon><path class="cls-1" d="M235.15,48.42a7.74,7.74,0,0,0-9.84,0,5.29,5.29,0,0,0,0,8.39,7.42,7.42,0,0,0,1.12.78,2.08,2.08,0,0,1-.88.18,4.22,4.22,0,0,1-2.1-.8,8.74,8.74,0,0,1-2.35-2.31A13.61,13.61,0,0,1,220,52.85a12.7,12.7,0,0,0,.47-3.69,11.41,11.41,0,0,0-.8-4.15,10.1,10.1,0,0,0-2.6-3.74,13.66,13.66,0,0,0-4.66-2.72,20.52,20.52,0,0,0-7-1.05,23.84,23.84,0,0,0-6,.67,36.09,36.09,0,0,0-4.28,1.34q-2.43-1.59-2.85-2.73a6,6,0,0,1-.42-2.06,3.38,3.38,0,0,1,1.68-3.11,8.73,8.73,0,0,1,4.53-1h9.23a28.6,28.6,0,0,0,6.08-.61,14.06,14.06,0,0,0,5.08-2.11A11.15,11.15,0,0,0,222,23.79a13.7,13.7,0,0,0,1.34-6.42A15.9,15.9,0,0,0,222,11,16.51,16.51,0,0,0,218,5.45a20.5,20.5,0,0,0-6.25-3.94A21.73,21.73,0,0,0,203.44,0,24.69,24.69,0,0,0,195,1.17,13.69,13.69,0,0,0,190.19,4,7.89,7.89,0,0,0,188,7.34a10.78,10.78,0,0,0-.51,2.89,8,8,0,0,0,1,4,10.52,10.52,0,0,0,2.62,3.06,17.69,17.69,0,0,0,3.56,2.22,24.77,24.77,0,0,0,3.8,1.42v.17a18.6,18.6,0,0,0-3.71.42A13.26,13.26,0,0,0,190.86,23a9.19,9.19,0,0,0-3.1,2.77,7.32,7.32,0,0,0-1.26,4.36,9.72,9.72,0,0,0,.21,1.51,9.91,9.91,0,0,0,1,2.56A13,13,0,0,0,190,37.25a17.59,17.59,0,0,0,4.15,3q-.76.59-1.68,1.38a12,12,0,0,0-1.72,1.85,10,10,0,0,0-1.34,2.43,8.76,8.76,0,0,0-.55,3.23A11,11,0,0,0,190,54.07a12,12,0,0,0,3.23,4,15.9,15.9,0,0,0,5.16,2.73,21.82,21.82,0,0,0,6.84,1,16.37,16.37,0,0,0,6.5-1.17A21,21,0,0,0,216.37,58l.76-.67a22.52,22.52,0,0,0,2.18-2.89l.08-.15A17,17,0,0,0,222.48,58a9.68,9.68,0,0,0,6.75,2.31,8.41,8.41,0,0,0,5.71-1.89,6.37,6.37,0,0,0,2.12-4.55,5.26,5.26,0,0,0,.15-1.23A5.35,5.35,0,0,0,235.15,48.42ZM200.34,21a16.37,16.37,0,0,1-3.9-4,9.39,9.39,0,0,1-1.38-5.39,14.21,14.21,0,0,1,.42-3.27,8.76,8.76,0,0,1,4.78-5.87,11.61,11.61,0,0,1,5.2-1,12.78,12.78,0,0,1,4.62.84,11.65,11.65,0,0,1,6.46,6,10.55,10.55,0,0,1,1,4.61,8.61,8.61,0,0,1-.84,4.07,7.23,7.23,0,0,1-4.87,3.75,13,13,0,0,1-2.77.35Zm10.91,28.4q0,2.43-.17,4.49a11,11,0,0,1-.84,3.57,5.32,5.32,0,0,1-1.93,2.35,6.29,6.29,0,0,1-3.52.84,6.15,6.15,0,0,1-3.44-.88,5.87,5.87,0,0,1-2.06-2.31,10.44,10.44,0,0,1-1-3.27,27.83,27.83,0,0,1-.25-3.78,31.18,31.18,0,0,1,.51-6.29A9.55,9.55,0,0,1,200,40.57,3.85,3.85,0,0,1,202.1,39a10.36,10.36,0,0,1,2.68-.34,8.78,8.78,0,0,1,2.69.38,4.05,4.05,0,0,1,2,1.51,8.56,8.56,0,0,1,1.3,3.27A27.31,27.31,0,0,1,211.25,49.42Z"></path></svg> 